<svg xmlns="http://www.w3.org/2000/svg" width="640" height="480" viewBox="0 0 320 240" role="img" aria-label="Settings and camera roll screen mockup">
  <rect width="320" height="240" fill="#121212"/>
  <text x="38" y="18" fill="#f5f5f5" font-family="Montserrat, Arial, sans-serif" font-size="12" font-weight="700">Settings</text>
  <g font-family="Montserrat, Arial, sans-serif">
    <text x="38" y="38" fill="#cfcfcf" font-size="10">Brightness</text>
    <rect x="38" y="44" width="244" height="6" rx="3" fill="#3a3a3a"/><rect x="38" y="44" width="160" height="6" rx="3" fill="#00E676"/><circle cx="198" cy="47" r="8" fill="#f5f5f5"/>
    <text x="38" y="72" fill="#cfcfcf" font-size="10">Buzzer volume</text>
    <rect x="38" y="78" width="244" height="6" rx="3" fill="#3a3a3a"/><rect x="38" y="78" width="108" height="6" rx="3" fill="#FFD600"/><circle cx="146" cy="81" r="8" fill="#f5f5f5"/>
    <text x="98" y="110" fill="#cfcfcf" font-size="11">FTP server</text>
    <rect x="38" y="92" width="44" height="24" rx="12" fill="#00E676"/><circle cx="68" cy="104" r="10" fill="#fff"/>
    <rect x="38" y="126" width="116" height="32" rx="6" fill="#2a2a2a" stroke="#777" stroke-opacity=".5"/>
    <text x="96" y="146" text-anchor="middle" fill="#f5f5f5" font-size="12">Baseline</text>
    <rect x="164" y="126" width="118" height="32" rx="6" fill="#2a2a2a" stroke="#777" stroke-opacity=".5"/>
    <text x="223" y="146" text-anchor="middle" fill="#f5f5f5" font-size="12">CO2 Cal</text>
    <text x="8" y="172" fill="#cfcfcf" font-size="10">Filter baseline: PM2.5 7.8  PM10 12.4</text>
    <text x="8" y="188" fill="#cfcfcf" font-size="10">Camera roll</text>
  </g>
  <g font-family="Montserrat, Arial, sans-serif" font-size="8" text-anchor="middle">
    <g transform="translate(8 194)"><rect width="56" height="30" rx="8" fill="#2a2a2a" stroke="#777" stroke-opacity=".45"/><rect x="6" y="5" width="44" height="14" fill="#3b403d"/><text x="28" y="27" fill="#f5f5f5">0605_1</text></g>
    <g transform="translate(70 194)"><rect width="56" height="30" rx="8" fill="#2a2a2a" stroke="#777" stroke-opacity=".45"/><rect x="6" y="5" width="44" height="14" fill="#3b403d"/><text x="28" y="27" fill="#f5f5f5">0605_2</text></g>
    <g transform="translate(132 194)"><rect width="56" height="30" rx="8" fill="#2a2a2a" stroke="#777" stroke-opacity=".45"/><rect x="6" y="5" width="44" height="14" fill="#3b403d"/><text x="28" y="27" fill="#f5f5f5">0605_3</text></g>
    <g transform="translate(194 194)"><rect width="56" height="30" rx="8" fill="#2a2a2a" stroke="#777" stroke-opacity=".45"/><rect x="6" y="5" width="44" height="14" fill="#3b403d"/><text x="28" y="27" fill="#f5f5f5">0605_4</text></g>
    <g transform="translate(256 194)"><rect width="56" height="30" rx="8" fill="#2a2a2a" stroke="#777" stroke-opacity=".45"/><rect x="6" y="5" width="44" height="14" fill="#3b403d"/><text x="28" y="27" fill="#f5f5f5">0605_5</text></g>
  </g>
</svg>
